/* XPM */
static const char * addbase_xpm[] = {
"23 22 6 1",
" 	c None",
".	c #000000",
"+	c #FF00FF",
"@	c #00FF00",
"#	c #0000FF",
"$	c #FF0000",
"                       ",
"                       ",
"                       ",
"                       ",
"    ...........        ",
"    .++++.@@@@.        ",
"    .++++.@@@@.        ",
"    .++++.@@@@.        ",
"    .++++.@@@@.        ",
"    ...........        ",
"    .####.$$$$.        ",
"    .####.$$$$.        ",
"    .####.$$$$.        ",
"    .####.$$$$.  .     ",
"    ...........  .     ",
"               .....   ",
"                 .     ",
"                 .     ",
"                       ",
"                       ",
"                       ",
"                       "};
