/* XPM */
static const char * addbox_xpm[] = {
"23 22 5 1",
" 	c None",
".	c #000000",
"+	c #C0C0C0",
"@	c #800000",
"#	c #FF0000",
"                       ",
"                       ",
"                       ",
"                       ",
"         .......       ",
"        .+++++..       ",
"       .+++++.@.       ",
"      .+++++.@@.       ",
"     .......@@@.       ",
"     .#####.@@@.       ",
"     .#####.@@@.       ",
"     .#####.@@.        ",
"     .#####.@.         ",
"     .#####..    .     ",
"     .......     .     ",
"               .....   ",
"                 .     ",
"                 .     ",
"                       ",
"                       ",
"                       ",
"                       "};
