/* XPM */
static const char * addlink_xpm[] = {
"23 22 3 1",
" 	c None",
".	c #000000",
"+	c #808080",
"                       ",
"                       ",
"                       ",
"                       ",
"                       ",
"            ...        ",
"           .++.        ",
"          .+.+.        ",
"         .+.+.         ",
"        ...+.          ",
"       .++..           ",
"      .+.+.            ",
"     .+.+.             ",
"     .++.       .      ",
"     ...        .      ",
"              .....    ",
"                .      ",
"                .      ",
"                       ",
"                       ",
"                       ",
"                       "};
