/* XPM */
static const char * addpyr_xpm[] = {
"23 22 4 1",
" 	c None",
".	c #000000",
"+	c #000080",
"@	c #0000FF",
"                       ",
"                       ",
"                       ",
"                       ",
"                       ",
"                       ",
"                       ",
"          .            ",
"         .++.          ",
"        .@.++..        ",
"       .@@@.++++.      ",
"      .@@@@@.++.       ",
"     .@@@@@@@++.       ",
"    ...........        ",
"                 .     ",
"                 .     ",
"               .....   ",
"                 .     ",
"                 .     ",
"                       ",
"                       ",
"                       "};
