/* XPM */
static const char * addtele_xpm[] = {
"23 22 4 1",
" 	c None",
".	c #000000",
"+	c #FFFF00",
"@	c #808080",
"                       ",
"                       ",
"                       ",
"    ............       ",
"    .+.+++.+++..       ",
"    .+++.+++.++.       ",
"    ..+.......+.       ",
"    .++.@@@@.++.       ",
"    .+..@@@@.+..       ",
"    .++.@@@@.++.       ",
"    ..+.@@@@..+.       ",
"    .++.@@@@.++.       ",
"    .+..@@@@.+..       ",
"    ....@@@@.... .     ",
"                 .     ",
"               .....   ",
"                 .     ",
"                 .     ",
"                       ",
"                       ",
"                       ",
"                       "};
