/* XPM */
static const char * basicon_xpm[] = {
"15 15 5 1",
" 	c None",
".	c #FF0000",
"+	c #FF00FF",
"@	c #00FF00",
"#	c #0000FF",
"               ",
"               ",
"  ..... +++++  ",
"  ..... +++++  ",
"  ..... +++++  ",
"  ..... +++++  ",
"  ..... +++++  ",
"               ",
"  @@@@@ #####  ",
"  @@@@@ #####  ",
"  @@@@@ #####  ",
"  @@@@@ #####  ",
"  @@@@@ #####  ",
"               ",
"               "};
