/* XPM */
static const char * boxicon_xpm[] = {
"16 16 4 1",
" 	c None",
".	c #000000",
"+	c #BCBCBC",
"@	c #C9A358",
"                ",
"                ",
"       .......  ",
"      .+++++..  ",
"     .+++++.@.  ",
"    .+++++.@@.  ",
"   .......@@@.  ",
"   .@@@@@.@@@.  ",
"   .@@@@@.@@@.  ",
"   .@@@@@.@@.   ",
"   .@@@@@.@.    ",
"   .@@@@@..     ",
"   .......      ",
"                ",
"                ",
"                "};
