/* XPM */
static const char * lnkicon_xpm[] = {
"16 16 3 1",
" 	c None",
".	c #000000",
"+	c #9B9B9B",
"                ",
"                ",
"                ",
"                ",
"         ...    ",
"        .++.    ",
"       .+.+.    ",
"      .+.+.     ",
"     ...+.      ",
"    .++..       ",
"   .+.+.        ",
"  .+.+.         ",
"  .++.          ",
"  ...           ",
"                ",
"                "};
