/* XPM */
static const char * target_xpm[] = {
"23 22 5 1",
" 	c None",
".	c #800000",
"+	c #FF0000",
"@	c #FFFF00",
"#	c #000000",
"                       ",
"                       ",
"                       ",
"        ......         ",
"       .++++++.        ",
"     ..++++++++..      ",
"     .++++..++++.      ",
"    .++...@@..+++.     ",
"   .+++.@@@@@@.+++.    ",
"   .++.@@@##@@@.++.    ",
"   .++.@@####@@.++.    ",
"   .++.@@@##@@@.++.    ",
"   .+++.@@@@@@.+++.    ",
"    .++...@@..+++.     ",
"     .++++..++++.      ",
"     ..++++++++..      ",
"       .++++++.        ",
"        ......         ",
"                       ",
"                       ",
"                       ",
"                       "};
