/* XPM */
static const char * telicon_xpm[] = {
"16 16 4 1",
" 	c None",
".	c #000000",
"+	c #FFF200",
"@	c #A3A3A3",
"                ",
"                ",
"  ............  ",
"  .+.+++.+++..  ",
"  .+++.+++.++.  ",
"  ..+.......+.  ",
"  .++.@@@@.++.  ",
"  .+..@@@@.+..  ",
"  .++.@@@@.++.  ",
"  ..+.@@@@..+.  ",
"  .++.@@@@.++.  ",
"  .+..@@@@.+..  ",
"  .++.@@@@.++.  ",
"  ....@@@@....  ",
"                ",
"                "};
