/* XPM */
static const char * yplus_xpm[] = {
"23 22 2 1",
" 	c None",
".	c #000000",
"                       ",
"                       ",
"                       ",
"                       ",
"                       ",
"                       ",
"   ..      ..          ",
"   ..      ..          ",
"    ..    ..   ..      ",
"     ..  ..    ..      ",
"      ....     ..      ",
"       ..    ......    ",
"       ..      ..      ",
"       ..      ..      ",
"       ..      ..      ",
"       ..              ",
"                       ",
"                       ",
"                       ",
"                       ",
"                       ",
"                       "};
