/* XPM */
static char * error_xpm[] = {
"48 48 72 1",
" 	c None",
".	c #BB0000",
"+	c #BD0000",
"@	c #B90000",
"#	c #BA0000",
"$	c #B70000",
"%	c #BC0000",
"&	c #BD0101",
"*	c #BE0000",
"=	c #B60000",
"-	c #C52222",
";	c #BE0707",
">	c #B80000",
",	c #B30000",
"'	c #CA3C3C",
")	c #B50000",
"!	c #C72929",
"~	c #FFFFFF",
"{	c #F5D8D8",
"]	c #BE0808",
"^	c #B40000",
"/	c #DD8080",
"(	c #DF8A8A",
"_	c #C62B2B",
":	c #FBF2F2",
"<	c #F3D2D2",
"[	c #BD0707",
"}	c #DB7D7D",
"|	c #DD8787",
"1	c #C62828",
"2	c #FBF1F1",
"3	c #FEFEFE",
"4	c #F1CECE",
"5	c #DC7E7E",
"6	c #F2D1D1",
"7	c #DB7F7F",
"8	c #DE8989",
"9	c #C72C2C",
"0	c #FCF4F4",
"a	c #F2D0D0",
"b	c #DA7C7C",
"c	c #E09090",
"d	c #DB7B7B",
"e	c #F2CFCF",
"f	c #BF0808",
"g	c #F6E0E0",
"h	c #BC0303",
"i	c #F3CFCF",
"j	c #BC0707",
"k	c #DB7E7E",
"l	c #F2CECE",
"m	c #DC7F7F",
"n	c #BD0808",
"o	c #AF0000",
"p	c #DA7D7D",
"q	c #F3D4D4",
"r	c #E19191",
"s	c #F3D0D0",
"t	c #F2CDCD",
"u	c #A80000",
"v	c #ECC0C0",
"w	c #FEFDFD",
"x	c #FCF5F5",
"y	c #BF0E0E",
"z	c #F1CDCD",
"A	c #F4D5D5",
"B	c #F3D1D1",
"C	c #F7E0E0",
"D	c #FCF3F3",
"E	c #DE8787",
"F	c #DC8080",
"G	c #C93C3C",
"                                                ",
"                   .++@@#@$%+%%#                ",
"                %.@%..%%+%%%%.@#%+              ",
"              %..%.%%.%.....%%%%%%.+@           ",
"            #@.%.%.....###.......%%.@#          ",
"           %.%%%%...##......#......%%##         ",
"         %%%........###.##.##..##..%&#.%        ",
"        *%.#=-;>.%.####.##.#####.%%,',.%%       ",
"       %+%#)!~{]$...###########...^/~()..+      ",
"      +%%.=_:~~<[>.%.#######.#.%.,}~~~|,#%%     ",
"      %%#=12~33~4[$#..########.%^5~~3~~|^..+    ",
"     %..)_2~3333~6]>.%.###.#..#,7~~333~~8,#%%   ",
"     ..@90~333333~a[>#%.####.%)b~~33333~~c=#.@  ",
"    %.%#d~~3333333~ef$...#..#^/~~3333333~gh%.#  ",
"    ...#^}~~3333333~<[>.%.%%,}~~3333333~ij$##%+ ",
"   %.%...,k~~3333333~l;$...)5~~3333333~<;>....# ",
"   %.%...#^m~~3333333~<n>@,5~~3333333~l[>.%..%.%",
"  %#%%...%.,}~~3333333~l;op~~3333333~<[@.%.#...%",
"  %.%...#..#^m~~3333333~qr~~3333333~sn$...#..%.#",
"  +....####..^}~~3333333~~~3333333~s[>#%.#.....@",
"  .....#..#..#,k~~333333333333333~<n@.%.###...%%",
" ##%%.#######..^5~~3333333333333~l[>...######.%.",
" %.%.%.####.#.%.,}~~33333333333~<[@.%.#######..%",
" +#%...#.#####..#^k~~333333333~tn$...#########.%",
" .#..###########.%uv333333333wxy)@%.########...%",
" +#%...#.#####..#^m~~333333333~zn$...#########.%",
" %.%.%.####.#.%%,}~~33333333333~<;>.%.#######..%",
" ##%%.#######.%)5~~3333333333333~l;$#..######.%.",
"  #....#..#..#,k~~333333333333333~<]>.%.###...+%",
"  +....####.%^}~~3333333~~~3333333~e;>#%.#....%@",
"  %.....#..#)/~~3333333~Ar~~3333333~a]$...#..%.#",
"  .#.%...%%,b~~3333333~e[ob~~3333333~B;>.%.#...%",
"   %%.....^m~~3333333~<n>#,5~~3333333~l;$.%..%.%",
"   %#%.%%,k~~3333333~l;>..#)5~~3333333~<;>...%# ",
"    ..%.^}~~3333333~<[>.%.%.,}~~3333333~lj$#.%% ",
"    +.%#d~~3333333~i]$...#..#^m~~3333333~Ch%.@% ",
"     ..@9D~333333~aj>#%.####..^}~~33333~~c=..@  ",
"     %%.)_2~3333~<]>.%.###.#..#,m~~333~~8,...   ",
"      +%#=12~33~l[$...########..^k~~3~~E^..#    ",
"      +%%.=_2~~<[>.%.#######.#.%#,}~~~E,#%.     ",
"       ++%#)!~{n>...###########..#^F~().%%      ",
"        +%%#=-[>.%.####.##.#####.%.,G,%%.       ",
"         %%%........###.##.##..##...&##.        ",
"          %+..%.%...##......#......%%#@         ",
"            #@%%.......###.......%%.@#          ",
"              +%.%.%%.%.....%%%%%%.+@           ",
"                %.@%#.%%+%%%+%##%+              ",
"                  .%%%>@.@$.%%%#                "};
